# xmcd CD database file
#
# Track frame offsets:
#	150
#	19358
#	44605
#	62858
#	81528
#	102743
#	123563
#	142558
#	164405
#	184208
#
# Disc length: 2769 seconds
#
# Revision: 0
# Processed by: cddbd v1.5.1PL0 Copyright (c) Steve Scherf et al.
# Submitted via: CDex 1.51
#
DISCID=940acf0a
DTITLE=中村由真 - 10 CARATS
DYEAR=1990
DGENRE=JPop
TTITLE0=ピ・ス・ト・ル
TTITLE1=WARNING BELL
TTITLE2=素直になれなくて
TTITLE3=もしかしたら！
TTITLE4=今夜は雨になる
TTITLE5=ためいきのEYES
TTITLE6=謎を残さないで
TTITLE7=不機嫌
TTITLE8=ハートに火がついた
TTITLE9=10 CARATS
EXTD=YEAR: 1990
EXTT0=
EXTT1=
EXTT2=
EXTT3=
EXTT4=
EXTT5=
EXTT6=
EXTT7=
EXTT8=
EXTT9=
PLAYORDER=
